<svg width="113" height="113" viewBox="0 0 113 113" fill="none" xmlns="http://www.w3.org/2000/svg">
<path d="M56.5 104C82.7335 104 104 82.7335 104 56.5C104 30.2665 82.7335 9 56.5 9C30.2665 9 9 30.2665 9 56.5C9 82.7335 30.2665 104 56.5 104Z" fill="#ED4C5C"/>
<path d="M56.5 108.5C85.2188 108.5 108.5 85.2188 108.5 56.5C108.5 27.7812 85.2188 4.5 56.5 4.5C27.7812 4.5 4.5 27.7812 4.5 56.5C4.5 85.2188 27.7812 108.5 56.5 108.5Z" stroke="white" stroke-opacity="0.75" stroke-width="9"/>
<path d="M56.5048 83.894C71.634 83.894 83.8987 71.6294 83.8987 56.5001C83.8987 41.3709 71.634 29.1062 56.5048 29.1062C41.3755 29.1062 29.1108 41.3709 29.1108 56.5001C29.1108 71.6294 41.3755 83.894 56.5048 83.894Z" fill="white"/>
<path d="M56.4958 77.0856C67.8648 77.0856 77.0812 67.8692 77.0812 56.5002C77.0812 45.1312 67.8648 35.9148 56.4958 35.9148C45.1268 35.9148 35.9104 45.1312 35.9104 56.5002C35.9104 67.8692 45.1268 77.0856 56.4958 77.0856Z" fill="#ED4C5C"/>
<path d="M68.3579 71.7181C76.7608 68.2375 80.7511 58.604 77.2705 50.2012C73.79 41.7983 64.1565 37.8081 55.7537 41.2887C47.3508 44.7693 43.3606 54.4026 46.8412 62.8054C50.3217 71.2083 59.9551 75.1987 68.3579 71.7181Z" fill="white"/>
<path d="M66.6341 56.506L72.0171 49.2183L63.4694 52.0694L58.2401 44.7878V53.8146L49.6926 56.506L58.2401 59.1976V68.2182L63.4694 60.9366L72.0171 63.7878L66.6341 56.506Z" fill="#ED4C5C"/>
</svg>
