<svg width="18" height="18" viewBox="0 0 18 18" fill="none" xmlns="http://www.w3.org/2000/svg">
<path d="M6.90517 15.1397V12.9935C6.90517 12.4475 7.37378 12.0036 7.95442 12.0001H10.081C10.6645 12.0001 11.1376 12.4447 11.1376 12.9935V15.1467C11.1368 15.6101 11.5303 15.9888 12.0233 16H13.441C14.8542 16 16 14.9227 16 13.5934V7.48649C15.9926 6.96359 15.731 6.47218 15.2912 6.15298L10.4427 2.47933C9.59316 1.84022 8.38547 1.84022 7.5359 2.47933L2.70885 6.15997C2.26674 6.47778 2.00516 6.96989 2 7.4928V13.5934C2 14.9227 3.14578 16 4.55905 16H5.97674C6.48148 16 6.89116 15.615 6.89116 15.1397" stroke="#7F8080" stroke-width="1.5" stroke-linecap="round" stroke-linejoin="round"/>
</svg>
