<svg width="18" height="18" viewBox="0 0 18 18" fill="none" xmlns="http://www.w3.org/2000/svg">
<path d="M1 4.85714C1 4.3646 1.19754 3.89223 1.54917 3.54394C1.90081 3.19566 2.37772 3 2.875 3H14.125C14.6223 3 15.0992 3.19566 15.4508 3.54394C15.8025 3.89223 16 4.3646 16 4.85714V14.1429C16 14.6354 15.8025 15.1078 15.4508 15.4561C15.0992 15.8043 14.6223 16 14.125 16H2.875C2.37772 16 1.90081 15.8043 1.54917 15.4561C1.19754 15.1078 1 14.6354 1 14.1429V4.85714V4.85714ZM1.9375 13.2143V14.1429C1.9375 14.3891 2.03627 14.6253 2.21209 14.7995C2.3879 14.9736 2.62636 15.0714 2.875 15.0714H14.125C14.3736 15.0714 14.6121 14.9736 14.7879 14.7995C14.9637 14.6253 15.0625 14.3891 15.0625 14.1429V10.8929L11.5216 9.08493C11.4336 9.04131 11.3341 9.02618 11.237 9.04167C11.14 9.05717 11.0503 9.10251 10.9806 9.17129L7.5025 12.6163L5.00875 10.9709C4.91871 10.9115 4.81071 10.8848 4.70307 10.8953C4.59542 10.9058 4.49475 10.9528 4.41812 11.0284L1.9375 13.2143ZM6.625 7.17857C6.625 6.80916 6.47684 6.45488 6.21312 6.19367C5.9494 5.93246 5.59171 5.78571 5.21875 5.78571C4.84579 5.78571 4.4881 5.93246 4.22438 6.19367C3.96066 6.45488 3.8125 6.80916 3.8125 7.17857C3.8125 7.54798 3.96066 7.90226 4.22438 8.16347C4.4881 8.42468 4.84579 8.57143 5.21875 8.57143C5.59171 8.57143 5.9494 8.42468 6.21312 8.16347C6.47684 7.90226 6.625 7.54798 6.625 7.17857Z" fill="#7F8080"/>
</svg>
