<svg width="56" height="56" viewBox="0 0 56 56" fill="none" xmlns="http://www.w3.org/2000/svg">
<path d="M6.86914 40.0234H30.8457V36.6133H7.09766C5.9375 36.6133 5.41016 36.1387 5.41016 34.9434V15.0801C5.41016 13.8848 5.9375 13.4102 7.09766 13.4102H41.6387C42.7988 13.4102 43.3262 13.8848 43.3262 15.0801V20.4766H46.7363V14.8691C46.7363 11.6172 45.0664 10 41.8672 10H6.86914C3.66992 10 2 11.6172 2 14.8691V35.1543C2 38.4062 3.66992 40.0234 6.86914 40.0234ZM37.5605 48.127H49.0742C51.6582 48.127 53.0117 46.7559 53.0117 44.1367V27.2266C53.0117 24.5898 51.6582 23.2363 49.0742 23.2363H37.5605C34.9414 23.2363 33.623 24.5898 33.623 27.2266V44.1367C33.623 46.7559 34.9414 48.127 37.5605 48.127ZM14.4805 46.1758H31.0918C30.8984 45.3672 30.8633 44.418 30.8633 42.959H14.4805C13.6016 42.959 12.8809 43.6973 12.8809 44.5762C12.8809 45.4551 13.6016 46.1758 14.4805 46.1758Z" fill="white"/>
<path d="M40.5 32.375V30.625C40.5 29.1753 41.6193 28 43 28C44.3807 28 45.5 29.1753 45.5 30.625V33.25M39.6667 42H46.3333C47.2538 42 48 41.2165 48 40.25V35C48 34.0335 47.2538 33.25 46.3333 33.25H39.6667C38.7462 33.25 38 34.0335 38 35V40.25C38 41.2165 38.7462 42 39.6667 42Z" stroke="black" stroke-width="2" stroke-linecap="round" stroke-linejoin="round"/>
</svg>
