<svg width="56" height="56" viewBox="0 0 56 56" fill="none" xmlns="http://www.w3.org/2000/svg">
<g clip-path="url(#clip0_46_8849)">
<path d="M13.252 45.5547H28.1582C29.0371 45.5547 29.7578 44.8164 29.7578 43.9551C29.7578 43.0586 29.0371 42.3379 28.1582 42.3379H26.5938L26.3125 40.3867C26.8926 40.5625 27.5781 40.668 28.3516 40.668H36.0859L35.8398 42.3379H34.416C33.5195 42.3379 32.7988 43.0586 32.7988 43.9551C32.7988 44.8164 33.5195 45.5547 34.416 45.5547H45.7188C46.5977 45.5547 47.3184 44.8164 47.3184 43.9551C47.3184 43.0586 46.5977 42.3379 45.7188 42.3379H44.2949L44.0312 40.668H51.7832C54.9824 40.668 56.6523 39.0508 56.6523 35.7812V22.6504C56.6523 19.3984 54.9824 17.7812 51.7832 17.7812H42.0625V14.002C42.0625 10.7324 40.3926 9.11523 37.1934 9.11523H4.19922C1 9.11523 -0.669922 10.7324 -0.669922 14.002V34.2695C-0.669922 37.5391 1 39.1562 4.19922 39.1562H15.2734L14.7988 42.3379H13.252C12.3555 42.3379 11.6348 43.0586 11.6348 43.9551C11.6348 44.8164 12.3555 45.5547 13.252 45.5547ZM4.42773 35.7285C3.26758 35.7285 2.75781 35.2539 2.75781 34.0586V14.2129C2.75781 13.0176 3.26758 12.543 4.42773 12.543H36.9648C38.125 12.543 38.6348 13.0176 38.6348 14.2129V17.7812H28.3516C25.1523 17.7812 23.4648 19.3984 23.4648 22.6504V35.7285H4.42773ZM26.8926 35.5703V22.8789C26.8926 21.666 27.4199 21.1914 28.5625 21.1914H51.5547C52.7148 21.1914 53.2246 21.666 53.2246 22.8789V35.5703C53.2246 36.7656 52.7148 37.2402 51.5547 37.2402H28.5625C27.4199 37.2402 26.8926 36.7656 26.8926 35.5703Z" fill="white"/>
</g>
<defs>
<clipPath id="clip0_46_8849">
<rect width="56" height="56" fill="white"/>
</clipPath>
</defs>
</svg>
