<svg width="18" height="19" viewBox="0 0 18 19" fill="none" xmlns="http://www.w3.org/2000/svg">
<path fill-rule="evenodd" clip-rule="evenodd" d="M15.5181 6.17181L15.0278 5.27285C14.6138 4.51206 13.6953 4.24901 12.9751 4.68601C12.6319 4.8991 12.2227 4.95986 11.8378 4.85415C11.4521 4.74843 11.1231 4.48542 10.9216 4.12167C10.7918 3.8911 10.7225 3.62806 10.7201 3.36004C10.7312 2.9297 10.5777 2.51267 10.2943 2.20469C10.011 1.89588 9.62139 1.72192 9.21447 1.72192H8.22669C7.82843 1.72192 7.44591 1.89004 7.16493 2.18887C6.88394 2.48769 6.72654 2.89308 6.7289 3.31426C6.7171 4.18493 6.0457 4.88412 5.22321 4.88412C4.96899 4.88079 4.72028 4.80755 4.50226 4.67021C3.78209 4.23404 2.86358 4.49623 2.44957 5.25703L1.92302 6.17181C1.50902 6.93094 1.75381 7.90233 2.47083 8.34266C2.93678 8.62733 3.22406 9.15341 3.22406 9.72192C3.22406 10.2913 2.93678 10.8165 2.47083 11.1012C1.75538 11.539 1.5098 12.5071 1.92302 13.2645L2.42044 14.1718C2.61485 14.5422 2.94071 14.8153 3.32559 14.931C3.71126 15.0475 4.12446 14.9959 4.47392 14.7886C4.81708 14.5764 5.22636 14.5189 5.61045 14.6271C5.99455 14.7362 6.32197 15.0025 6.51952 15.368C6.64939 15.5985 6.71866 15.8616 6.72102 16.1296C6.72102 17.0094 7.39554 17.7219 8.22669 17.7219H9.21447C10.0425 17.7219 10.7162 17.0136 10.7201 16.1371C10.7178 15.7142 10.876 15.308 11.1585 15.0092C11.4411 14.7095 11.8252 14.5431 12.2258 14.5447C12.4785 14.5522 12.7264 14.6255 12.946 14.7578C13.6646 15.1956 14.5823 14.9368 14.9995 14.1793L15.5181 13.2645C15.7188 12.8999 15.7739 12.4663 15.6708 12.0584C15.5685 11.6514 15.3159 11.3034 14.9703 11.0937C14.6248 10.8831 14.3722 10.536 14.2698 10.1281C14.1667 9.72026 14.2218 9.28659 14.4225 8.92201C14.5532 8.68062 14.7421 8.48083 14.9703 8.34266C15.6826 7.90233 15.9266 6.93677 15.5181 6.1793V6.17181Z" stroke="white" stroke-width="1.5" stroke-linecap="round" stroke-linejoin="round"/>
<path d="M8.72167 11.7219C9.82624 11.7219 10.7217 10.8265 10.7217 9.72194C10.7217 8.61736 9.82624 7.72192 8.72167 7.72192C7.6171 7.72192 6.72168 8.61736 6.72168 9.72194C6.72168 10.8265 7.6171 11.7219 8.72167 11.7219Z" stroke="white" stroke-width="1.5" stroke-linecap="round" stroke-linejoin="round"/>
</svg>
