<svg width="18" height="18" viewBox="0 0 18 18" fill="none" xmlns="http://www.w3.org/2000/svg">
<path d="M1.62514 17.9864C1.35475 17.9846 1.08906 17.9156 0.851997 17.7855C0.614933 17.6555 0.413946 17.4685 0.267143 17.2414C0.118585 17.0177 0.028719 16.7602 0.00582556 16.4927C-0.0170679 16.2251 0.0277478 15.9561 0.136143 15.7104L1.18714 13.2574C0.150297 11.3681 -0.170171 9.16816 0.284586 7.06157C0.739344 4.95497 1.9388 3.08313 3.66269 1.78979C5.38659 0.496445 7.5192 -0.131587 9.66892 0.0210186C11.8186 0.173625 13.8411 1.09662 15.365 2.62053C16.8889 4.14443 17.8119 6.16693 17.9645 8.31665C18.1172 10.4664 17.4891 12.599 16.1958 14.3229C14.9024 16.0468 13.0306 17.2462 10.924 17.701C8.8174 18.1557 6.61746 17.8353 4.72814 16.7984L2.27514 17.8494C2.07006 17.9389 1.84888 17.9855 1.62514 17.9864V17.9864ZM9.04014 1.61542C7.7373 1.61595 6.45814 1.96367 5.33433 2.62278C4.21051 3.28189 3.28265 4.22858 2.64625 5.36541C2.00984 6.50224 1.68789 7.78813 1.71354 9.09071C1.73918 10.3933 2.11149 11.6655 2.79214 12.7764L3.01214 13.1354L1.63314 16.3524L4.85014 14.9734L5.21014 15.1934C6.17555 15.785 7.26489 16.1449 8.39273 16.2448C9.52057 16.3447 10.6562 16.182 11.7106 15.7694C12.765 15.3567 13.7094 14.7054 14.4698 13.8664C15.2302 13.0275 15.7859 12.0238 16.0933 10.9341C16.4007 9.84437 16.4514 8.69824 16.2415 7.58562C16.0316 6.47299 15.5667 5.42414 14.8834 4.52132C14.2001 3.61851 13.3168 2.8863 12.303 2.38212C11.2892 1.87794 10.1724 1.61552 9.04014 1.61542V1.61542ZM12.2991 11.3864H5.78314C5.57206 11.379 5.3721 11.29 5.22539 11.138C5.07868 10.9861 4.99669 10.7831 4.99669 10.5719C4.99669 10.3607 5.07868 10.1578 5.22539 10.0058C5.3721 9.85387 5.57206 9.76482 5.78314 9.75742H12.2991C12.4085 9.75359 12.5175 9.77182 12.6197 9.81103C12.7219 9.85023 12.8151 9.90961 12.8938 9.98562C12.9725 10.0616 13.0351 10.1527 13.0779 10.2535C13.1206 10.3542 13.1427 10.4625 13.1427 10.5719C13.1427 10.6814 13.1206 10.7897 13.0779 10.8904C13.0351 10.9911 12.9725 11.0822 12.8938 11.1582C12.8151 11.2342 12.7219 11.2936 12.6197 11.3328C12.5175 11.372 12.4085 11.3903 12.2991 11.3864V11.3864ZM8.22714 8.13042H5.78314C5.57206 8.12302 5.3721 8.03397 5.22539 7.88203C5.07868 7.73009 4.99669 7.52713 4.99669 7.31592C4.99669 7.10471 5.07868 6.90175 5.22539 6.74981C5.3721 6.59787 5.57206 6.50882 5.78314 6.50142H8.22714C8.43822 6.50882 8.63819 6.59787 8.7849 6.74981C8.9316 6.90175 9.0136 7.10471 9.0136 7.31592C9.0136 7.52713 8.9316 7.73009 8.7849 7.88203C8.63819 8.03397 8.43822 8.12302 8.22714 8.13042V8.13042Z" fill="#686969"/>
</svg>
