<svg width="56" height="56" viewBox="0 0 56 56" fill="none" xmlns="http://www.w3.org/2000/svg">
<path d="M6.83594 33.9883C6.83594 37.2578 8.50586 38.875 11.7051 38.875H22.4453L21.9707 42.0566H20.1074C19.2285 42.0566 18.5078 42.7949 18.5078 43.6738C18.5078 44.5352 19.2285 45.2734 20.1074 45.2734H36.0156C36.9121 45.2734 37.6328 44.5352 37.6328 43.6738C37.6328 42.7949 36.9121 42.0566 36.0156 42.0566H34.0117L33.5547 38.875H44.2773C47.4766 38.875 49.1641 37.2578 49.1641 33.9883V14.2129C49.1641 10.9609 47.4766 9.34375 44.2773 9.34375H11.7051C8.50586 9.34375 6.83594 10.9609 6.83594 14.2129V33.9883ZM10.2637 33.7773V14.4414C10.2637 13.2285 10.7734 12.7715 11.9336 12.7715H44.0488C45.209 12.7715 45.7363 13.2285 45.7363 14.4414V33.7773C45.7363 34.9727 45.209 35.4473 44.0488 35.4473H11.9336C10.7734 35.4473 10.2637 34.9727 10.2637 33.7773Z" fill="white"/>
</svg>
