<svg width="56" height="56" viewBox="0 0 56 56" fill="none" xmlns="http://www.w3.org/2000/svg">
<path d="M27.9824 45.4844C37.9492 45.4844 46.1758 37.2578 46.1758 27.3086C46.1758 17.3594 37.9316 9.13281 27.9648 9.13281C18.0156 9.13281 9.80664 17.3594 9.80664 27.3086C9.80664 37.2578 18.0332 45.4844 27.9824 45.4844ZM27.9824 41.8633C19.9141 41.8633 13.4629 35.377 13.4629 27.3086C13.4629 19.2402 19.9141 12.7715 27.9648 12.7715C36.0332 12.7715 42.5195 19.2402 42.5371 27.3086C42.5547 35.377 36.0508 41.8633 27.9824 41.8633ZM26.207 38.418C26.8223 38.418 27.2969 37.9434 27.2969 37.3281V17.3066C27.2969 16.6738 26.8223 16.1992 26.207 16.1992C25.5918 16.1992 25.1172 16.6738 25.1172 17.3066V37.3281C25.1172 37.9609 25.5742 38.418 26.207 38.418ZM33.2383 36.0801C33.8711 36.0801 34.3457 35.6055 34.3457 35.0078V19.6094C34.3457 19.0117 33.8711 18.5371 33.2383 18.5371C32.6406 18.5371 32.166 19.0117 32.166 19.6094V35.0078C32.166 35.6055 32.6406 36.0801 33.2383 36.0801ZM22.6914 34.1641C23.3066 34.1641 23.7812 33.6895 23.7812 33.0742V21.5254C23.7812 20.9277 23.3066 20.4531 22.6914 20.4531C22.0762 20.4531 21.6016 20.9277 21.6016 21.5254V33.0742C21.6016 33.6895 22.0762 34.1641 22.6914 34.1641ZM29.7227 32.8633C30.3379 32.8633 30.8125 32.3711 30.8125 31.7734V22.8438C30.8125 22.2461 30.3379 21.7715 29.7227 21.7715C29.125 21.7715 28.6504 22.2461 28.6504 22.8438V31.7734C28.6504 32.3711 29.125 32.8633 29.7227 32.8633ZM36.7891 30.8594C37.4043 30.8594 37.8613 30.4023 37.8613 29.7695V24.8477C37.8613 24.2148 37.4043 23.7578 36.7891 23.7578C36.1562 23.7578 35.6816 24.2324 35.6816 24.8477V29.7695C35.6816 30.3848 36.1562 30.8594 36.7891 30.8594ZM19.1582 29.998C19.7734 29.998 20.248 29.5234 20.248 28.9082V25.709C20.248 25.0938 19.7734 24.6191 19.1582 24.6191C18.543 24.6191 18.0684 25.0938 18.0684 25.709V28.9082C18.0684 29.5234 18.543 29.998 19.1582 29.998Z" fill="white"/>
</svg>
